{"title":"Dark Matter S02E04 720p WEB-DL HEVC 2CH x265 [720P][HEVC]","uid":15411300,"size":338279621,"categoryP":"video","categoryS":"hd___tv_shows","magnet":"?xt=urn:btih:d184c08d17478ec1f2d3f5ff7cb3ff7c95dfc7da&amp;dn=Dark+Matter+S02E04+720p+WEB-DL+HEVC+2CH+x265+%5B720P%5D%5BHEVC%5D&amp;tr=udp%3A%2F%2Ftracker.leechers-paradise.org%3A6969&amp;tr=udp%3A%2F%2Fzer0day.ch%3A1337&amp;tr=udp%3A%2F%2Fopen.demonii.com%3A1337&amp;tr=udp%3A%2F%2Ftracker.coppersurfer.tk%3A6969&amp;tr=udp%3A%2F%2Fexodus.desync.com%3A6969","seeders":1,"leechers":0,"uploader":"nayhtut","files":1,"time":1469558660,"description":"[Screenshots]\r\n \nhttps://s31.postimg.org/3o95ykdmz/Dark_Matter_S02_E04_720p_WEB_DL_HEVC_2_CH_x265_007.jpg \nhttps://s31.postimg.org/6jm95fhmz/Dark_Matter_S02_E04_720p_WEB_DL_HEVC_2_CH_x265_001.jpg\r\n\r\n\r\n\r\nSource: Dark Matter S02E04 1080p WEB-DL DD5.1 H.264-VietHD (1.68 GB)\r\n\r\n\r\n__--__--__--__--__--__--__--__--__--__--__--__--__--\r\n\r\n\r\nComplete name                            : Dark.Matter.S02E04.720p.WEB-DL.HEVC.2CH.x265.mkv\r\nFormat                                   : Matroska\r\nFormat version                           : Version 4 / Version 2\r\nFile size                                : 323 MiB\r\nDuration                                 : 43mn 1s\r\nOverall bit rate                         : 1 048 Kbps\r\nWriting application                      : Lavf57.25.100\r\nWriting library                          : Lavf57.25.100\r\n\r\nVideo\r\n\r\nID                                       : 1\r\nFormat                                   : V_MPEGH/ISO/HEVC\r\nCodec ID                                 : V_MPEGH/ISO/HEVC\r\nDuration                                 : 43mn 1s\r\nBit rate                                 : 835 Kbps\r\nWidth                                    : 1 274 pixels\r\nHeight                                   : 720 pixels\r\nDisplay aspect ratio                     : 16:9\r\nFrame rate                               : 25.000 fps\r\nBits/(Pixel*Frame)                       : 0.036\r\nStream size                              : 257 MiB (80%)\r\nWriting library                          : Lavc57.48.101 libx265\r\nLanguage                                 : English\r\nDefault                                  : Yes\r\nForced                                   : No\r\nDURATION                                 : 00:43:01.811000000\r\nNUMBER_OF_FRAMES                         : 61900\r\nNUMBER_OF_BYTES                          : 1689686761\r\n_STATISTICS_WRITING_APP                  : mkvmerge v9.2.0 ('Photograph') 64bit\r\n_STATISTICS_WRITING_DATE_UTC             : 2016-07-25 01:35:59\r\n_STATISTICS_TAGS                         : BPS DURATION NUMBER_OF_FRAMES NUMBER_OF_BYTES\r\n\r\nAudio\r\n\r\nID                                       : 2\r\nFormat                                   : AC-3\r\nFormat/Info                              : Audio Coding 3\r\nMode extension                           : CM (complete main)\r\nFormat settings, Endianness              : Big\r\nCodec ID                                 : A_AC3\r\nDuration                                 : 43mn 1s\r\nBit rate mode                            : Constant\r\nBit rate                                 : 192 Kbps\r\nChannel(s)                               : 2 channels\r\nChannel positions                        : Front: L R\r\nSampling rate                            : 48.0 KHz\r\nBit depth                                : 16 bits\r\nCompression mode                         : Lossy\r\nStream size                              : 59.1 MiB (18%)\r\nWriting library                          : Lavc57.24.102 ac3\r\nLanguage                                 : English\r\nDefault                                  : Yes\r\nForced                                   : No\r\nDURATION                                 : 00:43:01.791000000\r\nNUMBER_OF_FRAMES                         : 80679\r\nNUMBER_OF_BYTES                          : 123922944\r\n_STATISTICS_WRITING_APP                  : mkvmerge v9.2.0 ('Photograph') 64bit\r\n_STATISTICS_WRITING_DATE_UTC             : 2016-07-25 01:35:59\r\n_STATISTICS_TAGS                         : BPS DURATION NUMBER_OF_FRAMES NUMBER_OF_BYTES\r\n\r\nText\r\n\r\nID                                       : 3\r\nFormat                                   : ASS\r\nCodec ID                                 : S_TEXT/ASS\r\nCodec ID/Info                            : Advanced Sub Station Alpha\r\nCompression mode                         : Lossless\r\nWriting library                          : Lavc57.48.101 ssa\r\nLanguage                                 : English\r\nDefault                                  : Yes\r\nForced                                   : No\r\nDURATION                                 : 00:42:38.639000000\r\nNUMBER_OF_FRAMES                         : 709\r\nNUMBER_OF_BYTES                          : 28725\r\n_STATISTICS_WRITING_APP                  : mkvmerge v9.2.0 ('Photograph') 64bit\r\n_STATISTICS_WRITING_DATE_UTC             : 2016-07-25 01:35:59\r\n_STATISTICS_TAGS                         : BPS DURATION NUMBER_OF_FRAMES NUMBER_OF_BYTES\r\n\r\n\r\n__--__--__--__--__--__--__--__--__--__--__--__--__--\r\n\r\n\r\nIMDb: http://www.imdb.com/title/tt4159076\r\n\r\n\r\n__--__--__--__--__--__--__--__--__--__--__--__--__--\r\n\r\n\r\nAfter adding torrent with maget link,\r\n\r\nplease add this  following trackers list to the torrent for better seeds.\r\n\r\nudp://tracker.coppersurfer.tk:6969/announce\r\n\r\nudp://tracker.opentrackr.org:1337/announce\r\n \nhttp://tracker.baravik.org:6970/announce\r\n \nhttp://tracker2.wasabii.com.tw:6969/announce\r\n\r\nudp://9.rarbg.me:2710/announce\r\n\r\n\r\n__--__--__--__--__--__--__--__--__--__--__--__--__--\r\n\r\n\r\nEnjoy!","torrent":{"xt":"urn:btih:d184c08d17478ec1f2d3f5ff7cb3ff7c95dfc7da","amp;dn":"Dark+Matter+S02E04+720p+WEB-DL+HEVC+2CH+x265+%5B720P%5D%5BHEVC%5D","amp;tr":["udp%3A%2F%2Ftracker.leechers-paradise.org%3A6969","udp%3A%2F%2Fzer0day.ch%3A1337","udp%3A%2F%2Fopen.demonii.com%3A1337","udp%3A%2F%2Ftracker.coppersurfer.tk%3A6969","udp%3A%2F%2Fexodus.desync.com%3A6969"],"infoHash":"d184c08d17478ec1f2d3f5ff7cb3ff7c95dfc7da","infoHashBuffer":{"type":"Buffer","data":[209,132,192,141,23,71,142,193,242,211,245,255,124,179,255,124,149,223,199,218]},"announce":[],"urlList":[]}}